<?xml version="1.0" encoding="utf-8"?>
<!-- Generator: Adobe Illustrator 23.0.0, SVG Export Plug-In . SVG Version: 6.00 Build 0)  -->
<svg version="1.1" xmlns="http://www.w3.org/2000/svg" xmlns:xlink="http://www.w3.org/1999/xlink" x="0px" y="0px"
	 viewBox="0 0 13 15" style="enable-background:new 0 0 13 15;" xml:space="preserve">
<style type="text/css">
	.st0{fill:#E0E0E0;stroke:#424242;stroke-width:0.25;stroke-miterlimit:10;}
	.st1{fill:none;stroke:#424242;stroke-width:0.25;stroke-miterlimit:10;}
	.st2{fill:none;stroke:#000000;stroke-width:0.1;stroke-miterlimit:10;}
	.st3{fill:#CFD8DC;}
	.st4{fill:#212121;}
	.st5{fill:none;stroke:#424242;stroke-width:0.3;stroke-miterlimit:10;}
	.st6{fill:#90A4AE;}
	.st7{fill:#616161;}
</style>
<g id="Layer_1">
	<path class="st0" d="M9.9,14.6H1c-0.3,0-0.5-0.2-0.5-0.5V1c0-0.3,0.2-0.5,0.5-0.5h8.9c0.3,0,0.5,0.2,0.5,0.5v13.1
		C10.4,14.3,10.2,14.6,9.9,14.6z"/>
	<line class="st1" x1="2" y1="2" x2="5" y2="2"/>
	<line class="st1" x1="2" y1="4" x2="9" y2="4"/>
	<line class="st1" x1="2" y1="6" x2="7" y2="6"/>
	<line class="st1" x1="2" y1="8" x2="4" y2="8"/>
	<line class="st1" x1="5" y1="8" x2="9" y2="8"/>
	<line class="st1" x1="2" y1="11.9" x2="6" y2="11.9"/>
	<line class="st1" x1="7" y1="11.9" x2="9" y2="11.9"/>
	<line class="st1" x1="9" y1="9.9" x2="2" y2="9.9"/>
</g>
<g id="Magnifying_Glass">
	<g>
		<path class="st2" d="M9,6c0.6,0.8,0.6,1.8,0.1,2.6C9,8.9,8.8,9.1,8.5,9.3S8,9.6,7.7,9.7C6.8,9.9,5.8,9.6,5.3,8.8
			c-0.8-1-0.6-2.5,0.5-3.3S8.2,5,9,6z"/>
		<path class="st3" d="M9.1,8.6C8.9,8.9,8.7,9.1,8.5,9.3C8.3,9.5,8,9.6,7.7,9.7C6.8,9.9,5.8,9.6,5.2,8.8c-0.8-1-0.5-2.5,0.5-3.3
			C6.8,4.8,8.3,5,9,6C9.6,6.8,9.6,7.9,9.1,8.6z"/>
		<path class="st4" d="M9.9,9.6l2.4,3.1c0.3,0.4,0.2,0.9-0.2,1.2c-0.4,0.3-0.9,0.2-1.2-0.2l-2.4-3.1c0.3-0.1,0.5-0.3,0.8-0.4
			C9.5,10,9.7,9.8,9.9,9.6z"/>
		<path class="st5" d="M4.8,7.4c0.7,0,1.4-0.1,2.2-0.1c0.7,0,1.4,0,2,0.1"/>
		<path class="st6" d="M9.2,7.1c0,0.2,0.1,0.4,0.1,0.5C9.2,7.4,8.9,6.9,8.4,6.6C8.1,6.3,7.7,6.2,7.5,6.1c0.1-0.2,0.1-0.5,0.2-0.7
			C8.5,5.8,9,6.4,9.2,7.1z"/>
		<path class="st6" d="M7.4,5.4c0,0.2-0.1,0.4-0.1,0.7c-0.1,0-0.2,0-0.3,0c-0.2,0-0.3,0-0.4,0.1c0-0.2,0-0.5,0-0.7
			c0.1,0,0.2-0.1,0.4-0.1C7.1,5.4,7.3,5.4,7.4,5.4z"/>
		<path class="st7" d="M9.9,5.3C8.8,3.7,6.6,3.4,5,4.6C3.5,5.8,3.2,8,4.3,9.5c1,1.3,2.7,1.7,4.1,1.1c0.3-0.1,0.5-0.2,0.8-0.4
			C9.5,10,9.7,9.8,9.9,9.6C10.8,8.4,10.9,6.6,9.9,5.3z M9.1,8.6C9,8.9,8.8,9.1,8.5,9.3C8.3,9.5,8,9.6,7.7,9.6
			C6.8,9.9,5.9,9.6,5.3,8.8c-0.8-1-0.6-2.5,0.5-3.3C6.7,4.8,8.2,5,9,6C9.6,6.8,9.6,7.8,9.1,8.6z"/>
	</g>
</g>
</svg>
